<svg width="80" height="80" viewBox="0 0 80 80" fill="none" xmlns="http://www.w3.org/2000/svg">
  <path
    d="M20 55H10V70H20V55ZM45 35H35V70H45V35ZM70 10V70H60V10H70ZM60 5C58.6739 5 57.4021 5.52678 56.4645 6.46447C55.5268 7.40215 55 8.67392 55 10V70C55 71.3261 55.5268 72.5979 56.4645 73.5355C57.4021 74.4732 58.6739 75 60 75H70C71.3261 75 72.5979 74.4732 73.5355 73.5355C74.4732 72.5979 75 71.3261 75 70V10C75 8.67392 74.4732 7.40215 73.5355 6.46447C72.5979 5.52678 71.3261 5 70 5H60ZM30 35C30 33.6739 30.5268 32.4021 31.4645 31.4645C32.4021 30.5268 33.6739 30 35 30H45C46.3261 30 47.5979 30.5268 48.5355 31.4645C49.4732 32.4021 50 33.6739 50 35V70C50 71.3261 49.4732 72.5979 48.5355 73.5355C47.5979 74.4732 46.3261 75 45 75H35C33.6739 75 32.4021 74.4732 31.4645 73.5355C30.5268 72.5979 30 71.3261 30 70V35ZM5 55C5 53.6739 5.52678 52.4021 6.46447 51.4645C7.40215 50.5268 8.67392 50 10 50H20C21.3261 50 22.5979 50.5268 23.5355 51.4645C24.4732 52.4021 25 53.6739 25 55V70C25 71.3261 24.4732 72.5979 23.5355 73.5355C22.5979 74.4732 21.3261 75 20 75H10C8.67392 75 7.40215 74.4732 6.46447 73.5355C5.52678 72.5979 5 71.3261 5 70V55Z"
    fill="url(#paint0_linear_220_578)"/>
  <defs>
    <linearGradient id="paint0_linear_220_578" x1="81.7799" y1="-3.44442" x2="5.33578" y2="75.2262"
                    gradientUnits="userSpaceOnUse">
      <stop stop-color="#B0BAF1"/>
      <stop offset="1" stop-color="#CED7FE"/>
    </linearGradient>
  </defs>
</svg>
