<svg width="80" height="80" viewBox="0 0 80 80" fill="none" xmlns="http://www.w3.org/2000/svg">
  <path fill-rule="evenodd" clip-rule="evenodd"
        d="M72.8713 36.4421C72.3971 38.8682 71.5673 41.1971 70.427 43.392C70.6944 44.4624 70.8334 45.5584 70.8334 46.6667C70.8334 49.3425 70.0569 51.8943 68.6352 54.1975C67.9587 55.2934 67.8363 56.7278 67.8078 57.7473C67.7752 58.9159 67.8655 60.2339 68.0019 61.4988C68.1176 62.5717 68.272 63.6549 68.4318 64.6474C67.2855 64.2969 65.9997 63.9247 64.7207 63.5965C63.3474 63.244 61.9278 62.9281 60.6709 62.7495C60.0425 62.6603 59.4112 62.5989 58.8208 62.5929C58.2632 62.5872 57.5793 62.6273 56.9255 62.8386C54.285 63.6922 51.3849 64.1667 48.3334 64.1667C44.0068 64.1667 40.0639 63.2409 36.7299 61.6667C36.7088 61.6667 36.6877 61.6667 36.6667 61.6667C33.1901 61.6667 29.8266 61.2708 26.6398 60.5312C31.7662 65.8676 39.7439 69.1667 48.3334 69.1667C51.8885 69.1667 55.2956 68.6161 58.428 67.6077C58.4294 67.6075 58.4317 67.6073 58.4349 67.6069C58.4641 67.6033 58.5673 67.5906 58.7697 67.5927C59.0692 67.5957 59.4689 67.629 59.9678 67.6998C60.9653 67.8415 62.1853 68.1078 63.4778 68.4395C66.0537 69.1006 68.7034 69.9655 70.0185 70.4102C72.2255 71.1564 74.391 69.2232 73.9334 66.9602C73.6784 65.6993 73.2225 63.2759 72.9731 60.9627C72.8478 59.8007 72.7822 58.734 72.8059 57.8869C72.8234 57.2584 72.888 56.9419 72.9108 56.8304C72.9173 56.7986 72.9204 56.7835 72.918 56.7826C72.9163 56.7819 72.912 56.7881 72.9044 56.8003C74.7657 53.7761 75.8334 50.3316 75.8334 46.6667C75.8334 42.9287 74.7565 39.4701 72.8713 36.4421Z"
        fill="url(#paint0_linear_220_580)"/>
  <path
    d="M65 31.6667C65 43.6328 52.3147 53.3333 36.6667 53.3333C32.5076 53.3333 28.5579 52.6481 25 51.4171C22.2197 50.4552 11.2127 54.7971 7.72945 56.2248C7.32422 56.3909 6.90752 55.9982 7.05245 55.5849C8.23068 52.2253 11.635 42.0725 10.5048 40C9.10585 37.4347 8.33332 34.6197 8.33332 31.6667C8.33332 19.7005 21.0186 10 36.6667 10C52.3147 10 65 19.7005 65 31.6667Z"
    stroke="url(#paint1_linear_220_580)" stroke-width="5"/>
  <defs>
    <linearGradient id="paint0_linear_220_580" x1="80.5981" y1="32.3248" x2="46.0315" y2="83.5976"
                    gradientUnits="userSpaceOnUse">
      <stop stop-color="#B0BAF1"/>
      <stop offset="1" stop-color="#CED7FE"/>
    </linearGradient>
    <linearGradient id="paint1_linear_220_580" x1="70.6499" y1="4.37038" x2="21.2414" y2="67.9298"
                    gradientUnits="userSpaceOnUse">
      <stop stop-color="#B0BAF1"/>
      <stop offset="1" stop-color="#CED7FE"/>
    </linearGradient>
  </defs>
</svg>
