<svg width="80" height="80" viewBox="0 0 80 80" fill="none" xmlns="http://www.w3.org/2000/svg">
  <path
    d="M33.3333 26.6667H53.3333C54.2174 26.6667 55.0652 26.3155 55.6904 25.6904C56.3155 25.0653 56.6667 24.2174 56.6667 23.3334C56.6667 22.4493 56.3155 21.6015 55.6904 20.9763C55.0652 20.3512 54.2174 20 53.3333 20H33.3333C32.4493 20 31.6014 20.3512 30.9763 20.9763C30.3512 21.6015 30 22.4493 30 23.3334C30 24.2174 30.3512 25.0653 30.9763 25.6904C31.6014 26.3155 32.4493 26.6667 33.3333 26.6667V26.6667ZM26.6667 40H53.3333C54.2174 40 55.0652 39.6488 55.6904 39.0237C56.3155 38.3986 56.6667 37.5507 56.6667 36.6667C56.6667 35.7826 56.3155 34.9348 55.6904 34.3097C55.0652 33.6845 54.2174 33.3334 53.3333 33.3334H26.6667C25.7826 33.3334 24.9348 33.6845 24.3096 34.3097C23.6845 34.9348 23.3333 35.7826 23.3333 36.6667C23.3333 37.5507 23.6845 38.3986 24.3096 39.0237C24.9348 39.6488 25.7826 40 26.6667 40ZM26.6667 53.3334H53.3333C54.2174 53.3334 55.0652 52.9822 55.6904 52.357C56.3155 51.7319 56.6667 50.8841 56.6667 50C56.6667 49.116 56.3155 48.2681 55.6904 47.643C55.0652 47.0179 54.2174 46.6667 53.3333 46.6667H26.6667C25.7826 46.6667 24.9348 47.0179 24.3096 47.643C23.6845 48.2681 23.3333 49.116 23.3333 50C23.3333 50.8841 23.6845 51.7319 24.3096 52.357C24.9348 52.9822 25.7826 53.3334 26.6667 53.3334ZM66.6667 6.66669H13.3333C12.4493 6.66669 11.6014 7.01788 10.9763 7.643C10.3512 8.26812 10 9.11597 10 10V70C10 70.6191 10.1724 71.2259 10.4978 71.7525C10.8233 72.279 11.2889 72.7046 11.8426 72.9814C12.3963 73.2583 13.0161 73.3755 13.6327 73.3199C14.2492 73.2643 14.8381 73.0381 15.3333 72.6667L22.2333 67.5L29.1 72.6667C29.677 73.0994 30.3788 73.3334 31.1 73.3334C31.8212 73.3334 32.523 73.0994 33.1 72.6667L40 67.5L46.9 72.6667C47.477 73.0994 48.1788 73.3334 48.9 73.3334C49.6212 73.3334 50.323 73.0994 50.9 72.6667L57.7667 67.5L64.6667 72.6667C65.1643 73.0376 65.7556 73.2621 66.3739 73.3151C66.9923 73.3682 67.6132 73.2475 68.1667 72.9667C68.7164 72.6897 69.1787 72.2659 69.5023 71.7422C69.8259 71.2186 69.9981 70.6156 70 70V10C70 9.11597 69.6488 8.26812 69.0237 7.643C68.3986 7.01788 67.5507 6.66669 66.6667 6.66669V6.66669ZM63.3333 63.3334L59.7667 60.6667C59.1897 60.2339 58.4879 60 57.7667 60C57.0454 60 56.3437 60.2339 55.7667 60.6667L48.9 65.8334L42 60.6667C41.423 60.2339 40.7212 60 40 60C39.2788 60 38.577 60.2339 38 60.6667L31.1 65.8334L24.2333 60.6667C23.6563 60.2339 22.9546 60 22.2333 60C21.5121 60 20.8103 60.2339 20.2333 60.6667L16.6667 63.3334V13.3334H63.3333V63.3334Z"
    fill="url(#paint0_linear_220_584)"/>
  <defs>
    <linearGradient id="paint0_linear_220_584" x1="75.8113" y1="-1.37562" x2="3.19085" y2="65.8864"
                    gradientUnits="userSpaceOnUse">
      <stop stop-color="#B0BAF1"/>
      <stop offset="1" stop-color="#CED7FE"/>
    </linearGradient>
  </defs>
</svg>
