<svg width="81" height="80" viewBox="0 0 81 80" fill="none" xmlns="http://www.w3.org/2000/svg">
  <path fill-rule="evenodd" clip-rule="evenodd"
        d="M69.971 1.40952e-07C60.2259 -0.000836247 50.8485 3.72061 43.7559 10.4035L39.1195 14.7768C37.2047 16.5796 35.3751 18.4708 33.6369 20.4444H15.7276C14.6533 20.4449 13.5975 20.7235 12.6629 21.2531C11.7283 21.7827 10.9467 22.5453 10.3943 23.4666L0.758721 39.5163C0.539869 39.8812 0.411487 40.2931 0.384297 40.7177C0.357107 41.1422 0.431899 41.5672 0.602425 41.9569C0.772952 42.3467 1.03426 42.69 1.36454 42.9582C1.69481 43.2264 2.08446 43.4117 2.50094 43.4985L18.7533 46.9225C18.892 47.0968 19.0449 47.2639 19.212 47.4203L26.3018 54.0798L32.9577 61.1696C33.1142 61.3367 33.2813 61.4896 33.4555 61.6283L36.8795 77.8842C36.9673 78.3001 37.1533 78.6889 37.4218 79.0184C37.6904 79.3478 38.0338 79.6082 38.4235 79.778C38.8131 79.9478 39.2377 80.022 39.6618 79.9944C40.086 79.9668 40.4974 79.8382 40.8617 79.6193L56.9115 69.9874C57.8327 69.4349 58.5953 68.6533 59.1249 67.7187C59.6545 66.7841 59.9332 65.7283 59.9337 64.654V46.7412C61.9097 45.0031 63.8033 43.1736 65.6083 41.2586L69.9745 36.6221C76.657 29.5281 80.3772 20.1493 80.3745 10.4035V6.21865C80.3736 4.56903 79.7176 2.98731 78.5508 1.82118C77.384 0.655064 75.8019 -1.28373e-07 74.1523 1.40952e-07H69.9674H69.971ZM54.6039 51.0647C53.4199 51.9465 52.2146 52.7963 50.9844 53.6176L38.9204 61.6603L41.3311 73.1198L54.1737 65.4149C54.3049 65.3359 54.4134 65.2243 54.4888 65.091C54.5642 64.9577 54.6038 64.8072 54.6039 64.654V51.0647V51.0647ZM18.7213 41.4648L26.764 29.3937C27.5818 28.1635 28.4351 26.9581 29.3133 25.7777H15.7276C15.5744 25.7778 15.4239 25.8175 15.2906 25.8928C15.1573 25.9682 15.0457 26.0767 14.9667 26.2079L7.26181 39.0506L18.7213 41.4648V41.4648ZM47.4146 14.2862C53.5172 8.53558 61.5858 5.33306 69.971 5.33332H74.1559C74.3916 5.33332 74.6177 5.42697 74.7844 5.59367C74.9511 5.76037 75.0447 5.98646 75.0447 6.2222V10.4035C75.0478 18.7907 71.8464 26.8621 66.0954 32.967L61.7292 37.5999C57.6155 41.9672 53.0182 45.8523 48.0261 49.1803L36.3355 56.9741L30.1382 50.3679C30.0992 50.3263 30.0589 50.286 30.0173 50.247L23.4075 44.0461L31.2049 32.3484C34.5313 27.3604 38.414 22.7668 42.7782 18.6559L47.4146 14.2826V14.2862ZM59.9372 25.7777C59.9372 27.1922 59.3753 28.5487 58.3751 29.5489C57.3749 30.5491 56.0184 31.111 54.6039 31.111C53.1894 31.111 51.8329 30.5491 50.8327 29.5489C49.8325 28.5487 49.2706 27.1922 49.2706 25.7777C49.2706 24.3632 49.8325 23.0067 50.8327 22.0065C51.8329 21.0063 53.1894 20.4444 54.6039 20.4444C56.0184 20.4444 57.3749 21.0063 58.3751 22.0065C59.3753 23.0067 59.9372 24.3632 59.9372 25.7777V25.7777ZM20.8262 71.9998C24.0262 68.7998 24.0262 62.7554 20.8262 59.5554C17.6262 56.3554 11.5818 56.3554 8.38181 59.5554C4.08316 63.854 3.24405 73.4256 3.08405 76.4193C3.07618 76.5367 3.0935 76.6544 3.13485 76.7645C3.17621 76.8746 3.24063 76.9746 3.3238 77.0578C3.40698 77.141 3.50698 77.2054 3.6171 77.2468C3.72722 77.2881 3.8449 77.3054 3.96227 77.2976C6.95604 77.1376 16.5276 76.2985 20.8262 71.9998V71.9998Z"
        fill="url(#paint0_linear_220_586)"/>
  <defs>
    <linearGradient id="paint0_linear_220_586" x1="88.1225" y1="-9.65077" x2="0.757693" y2="80.2538"
                    gradientUnits="userSpaceOnUse">
      <stop stop-color="#B0BAF1"/>
      <stop offset="1" stop-color="#CED7FE"/>
    </linearGradient>
  </defs>
</svg>
